<svg width="91" height="110" viewBox="0 0 91 110" fill="none" xmlns="http://www.w3.org/2000/svg">
    <g id="Group">
        <g id="Group_2">
            <path id="Vector"
                  d="M39.4797 69.5363C39.0361 69.0334 38.4616 68.6725 37.8248 68.4966C37.1879 68.3207 36.5154 68.3372 35.8874 68.5442L29.7377 70.5635C29.4013 70.6746 29.0461 70.7118 28.6949 70.6729C28.3437 70.6339 28.0043 70.5197 27.6985 70.3374C27.3926 70.1552 27.1272 69.909 26.9191 69.6147C26.7111 69.3203 26.565 68.9844 26.4904 68.6284L25.1106 62.128C24.9687 61.464 24.6454 60.8558 24.1789 60.3752C23.7125 59.8946 23.1223 59.5618 22.4783 59.416L22.1878 59.3505L0.0668945 92.7627L18.0849 91.5225L23.1001 109.4L45.6998 75.309C45.3469 75.3112 44.9976 75.2362 44.6749 75.0889C44.3522 74.9417 44.0634 74.7256 43.8276 74.4549L39.4797 69.5363Z"
                  fill="#A78BFA"/>
            <path id="Vector_2"
                  d="M39.4796 69.5363C39.1571 69.1693 38.7639 68.8756 38.3251 68.6742C37.8863 68.4727 37.4115 68.3679 36.9312 68.3663C36.5769 68.3661 36.2247 68.4229 35.8873 68.5348L29.7376 70.5542C29.4011 70.6652 29.0457 70.7025 28.6944 70.6635C28.343 70.6246 28.0035 70.5104 27.6975 70.3282C27.3915 70.1459 27.1258 69.8998 26.9175 69.6054C26.7092 69.3111 26.5629 68.9751 26.488 68.619L25.8072 65.3946L7.57812 92.2456L18.0826 91.5225L21.0077 101.945L41.4788 71.799L39.4796 69.5363ZM51.3162 69.5363C51.7598 69.0333 52.3342 68.6725 52.9711 68.4966C53.6079 68.3207 54.2804 68.3372 54.9084 68.5441L61.0582 70.5635C61.3946 70.6746 61.7498 70.7118 62.101 70.6729C62.4522 70.6339 62.7916 70.5196 63.0974 70.3374C63.4032 70.1552 63.6687 69.909 63.8767 69.6146C64.0848 69.3203 64.2308 68.9844 64.3055 68.6284L65.6852 62.128C65.8273 61.4643 66.1507 60.8564 66.6171 60.3762C67.0836 59.8961 67.6737 59.5636 68.3176 59.4183L68.608 59.3528L90.7335 92.7627L72.7154 91.5225L67.7003 109.4L45.0961 75.309C45.4489 75.3111 45.7983 75.2361 46.121 75.0889C46.4437 74.9417 46.7324 74.7256 46.9682 74.4549L51.3162 69.5363Z"
                  fill="#A78BFA"/>
            <path id="Vector_3"
                  d="M51.3161 69.5362C51.7597 69.0332 52.3342 68.6723 52.971 68.4965C53.6079 68.3206 54.2804 68.3371 54.9084 68.544L61.0581 70.5634C61.3945 70.6744 61.7497 70.7117 62.1009 70.6727C62.4521 70.6338 62.7915 70.5195 63.0974 70.3373C63.4032 70.1551 63.6686 69.9089 63.8767 69.6145C64.0848 69.3202 64.2308 68.9843 64.3055 68.6283L64.9863 65.4038L83.2131 92.2455L72.7063 91.5224L69.7835 101.945L49.3169 71.7989L51.3161 69.5362Z"
                  fill="#A78BFA"/>
        </g>
        <path id="Vector_4"
              d="M54.334 72.417L60.2341 74.3545C61.0822 74.6333 61.9773 74.7264 62.8622 74.6278C63.7472 74.5292 64.6024 74.2412 65.3731 73.7822C66.1439 73.3231 66.8131 72.7032 67.3381 71.962C67.8631 71.2208 68.2321 70.3748 68.4217 69.478L69.7424 63.2444L70.995 62.9636L68.6055 59.353L68.315 59.4185C67.672 59.5647 67.0829 59.8974 66.6173 60.3776C66.1516 60.8577 65.8289 61.4651 65.6872 62.1282L64.3075 68.6286C64.2328 68.9846 64.0868 69.3206 63.8787 69.6149C63.6707 69.9092 63.4052 70.1554 63.0994 70.3377C62.7936 70.5199 62.4542 70.6342 62.103 70.6731C61.7518 70.712 61.3966 70.6748 61.0602 70.5638L54.9104 68.5444C54.2824 68.3374 53.6099 68.3209 52.9731 68.4968C52.3362 68.6727 51.7618 69.0336 51.3182 69.5365L46.9702 74.4504C46.7839 74.6969 46.5455 74.8963 46.2732 75.0335C46.0009 75.1706 45.7018 75.2419 45.3987 75.2419C45.0957 75.2419 44.7966 75.1706 44.5243 75.0335C44.252 74.8963 44.0136 74.6969 43.8273 74.4504L39.4816 69.5365C39.1591 69.1695 38.7659 68.8759 38.3271 68.6744C37.8883 68.473 37.4135 68.3681 36.9332 68.3665C36.5789 68.3663 36.2267 68.4232 35.8893 68.535L29.7396 70.5544C29.4031 70.6654 29.0477 70.7027 28.6964 70.6638C28.345 70.6249 28.0055 70.5106 27.6995 70.3284C27.3935 70.1462 27.1278 69.9 26.9195 69.6057C26.7112 69.3113 26.5649 68.9753 26.49 68.6193L25.1126 62.1189C24.9685 61.4567 24.644 60.8508 24.1773 60.3724C23.7105 59.894 23.1209 59.5631 22.4779 59.4185L22.1897 59.353L19.8115 62.9519L21.1368 63.2491L22.4575 69.4827C22.6475 70.3793 23.0171 71.2251 23.5424 71.9659C24.0677 72.7068 24.7373 73.3263 25.5083 73.7849C26.2792 74.2435 27.1345 74.5311 28.0195 74.6292C28.9044 74.7272 29.7995 74.6337 30.6473 74.3545L36.5316 72.4006L40.7138 77.1344C41.4325 77.9327 42.3324 78.5342 43.3326 78.8847L45.3976 75.7655L47.4808 78.9057C48.5068 78.5595 49.4306 77.9499 50.1654 77.1344L54.334 72.417Z"
              fill="#7C3AED"/>
        <path id="Vector_5"
              d="M39.4801 69.5363C39.1576 69.1692 38.7644 68.8756 38.3256 68.6742C37.8868 68.4727 37.412 68.3679 36.9317 68.3663C36.5774 68.3661 36.2252 68.4229 35.8878 68.5348L29.7381 70.5541C29.4016 70.6652 29.0462 70.7024 28.6949 70.6635C28.3435 70.6246 28.004 70.5104 27.698 70.3281C27.392 70.1459 27.1263 69.8997 26.918 69.6054C26.7097 69.3111 26.5634 68.9751 26.4885 68.619L25.8077 65.3945L7.57861 92.2455L18.0831 91.5225L21.0082 101.945L41.4793 71.799L39.4801 69.5363ZM64.9913 65.4039L64.3105 68.6284C64.2359 68.9843 64.0898 69.3203 63.8818 69.6146C63.6737 69.9089 63.4082 70.1551 63.1024 70.3374C62.7966 70.5196 62.4572 70.6339 62.106 70.6728C61.7548 70.7118 61.3996 70.6745 61.0632 70.5635L54.9135 68.5441C54.2854 68.3372 53.613 68.3206 52.9761 68.4965C52.3392 68.6724 51.7648 69.0333 51.3212 69.5363L49.322 71.799L69.7931 101.945L72.7159 91.5225L83.2227 92.2455L64.9913 65.4039Z"
              fill="#8B5CF6"/>
        <path id="Vector_6"
              d="M41.4795 71.799L39.4802 69.5363C39.1577 69.1692 38.7645 68.8756 38.3257 68.6742C37.8869 68.4727 37.4122 68.3679 36.9318 68.3663C36.5775 68.3661 36.2253 68.4229 35.888 68.5348L29.7382 70.5541C29.4017 70.6652 29.0463 70.7024 28.695 70.6635C28.3437 70.6246 28.0041 70.5104 27.6981 70.3281C27.3921 70.1459 27.1264 69.8997 26.9182 69.6054C26.7099 69.3111 26.5636 68.9751 26.4886 68.619L25.8078 65.3945L22.6309 70.0744C23.1451 71.7372 24.2781 73.1217 25.7812 73.924C27.2843 74.7264 29.0346 74.8811 30.6482 74.3542L36.5324 72.4004L39.099 75.3066L41.4817 71.7967L41.4795 71.799ZM60.2328 74.3542C61.8312 74.8793 63.5658 74.7353 65.0622 73.9535C66.5587 73.1717 67.6971 71.8146 68.232 70.1751L64.9914 65.4039L64.3107 68.6284C64.236 68.9843 64.09 69.3203 63.8819 69.6146C63.6738 69.9089 63.4084 70.1551 63.1026 70.3374C62.7967 70.5196 62.4573 70.6339 62.1061 70.6728C61.7549 70.7118 61.3997 70.6745 61.0633 70.5635L54.9136 68.5441C54.2856 68.3372 53.6131 68.3206 52.9762 68.4965C52.3394 68.6724 51.7649 69.0333 51.3213 69.5363L49.3221 71.799L51.7343 75.3534L54.3349 72.4121L60.2328 74.3542Z"
              fill="#A78BFA"/>
        <path id="Vector_7"
              d="M68.7554 16.4965L75.0617 17.9169C75.4682 18.0089 75.8516 18.1874 76.1874 18.4409C76.5232 18.6943 76.8041 19.0172 77.0121 19.3889C77.2201 19.7606 77.3506 20.1729 77.3954 20.5996C77.4401 21.0262 77.3981 21.4578 77.272 21.8667L75.3136 28.208C75.14 28.7701 75.1264 29.3718 75.2744 29.9417C75.4225 30.5116 75.7259 31.0257 76.1487 31.4231L80.9142 35.9041C81.222 36.1932 81.4679 36.5453 81.6362 36.9379C81.8044 37.3306 81.8913 37.7551 81.8913 38.1844C81.8913 38.6137 81.8044 39.0383 81.6362 39.4309C81.4679 39.8236 81.222 40.1757 80.9142 40.4647L76.1487 44.9481C75.7256 45.3453 75.4221 45.8594 75.274 46.4294C75.126 46.9993 75.1397 47.6011 75.3136 48.1632L77.272 54.5045C77.3981 54.9133 77.4401 55.3447 77.3954 55.7712C77.3506 56.1977 77.22 56.6099 77.012 56.9814C76.804 57.3529 76.5231 57.6755 76.1873 57.9288C75.8515 58.182 75.4681 58.3602 75.0617 58.452L68.7554 59.8747C68.1964 60.0007 67.6841 60.2895 67.2795 60.7068C66.8748 61.124 66.5948 61.6522 66.4725 62.2287L65.0928 68.7291C65.0044 69.1485 64.8319 69.5443 64.5866 69.891C64.3412 70.2377 64.0283 70.5278 63.6679 70.7426C63.3074 70.9574 62.9075 71.0921 62.4936 71.1383C62.0798 71.1844 61.6611 71.1409 61.2645 71.0105L55.1148 68.9911C54.5697 68.8113 53.986 68.7968 53.4331 68.9495C52.8803 69.1021 52.3817 69.4155 51.9968 69.8522L47.6489 74.7662C47.3688 75.0835 47.0275 75.337 46.6469 75.5105C46.2663 75.684 45.8547 75.7736 45.4386 75.7736C45.0225 75.7736 44.6109 75.684 44.2303 75.5105C43.8497 75.337 43.5084 75.0835 43.2283 74.7662L38.8804 69.8522C38.4955 69.4155 37.9969 69.1021 37.4441 68.9495C36.8912 68.7968 36.3075 68.8113 35.7624 68.9911L29.6127 71.0105C29.2161 71.1409 28.7974 71.1844 28.3836 71.1383C27.9697 71.0921 27.5697 70.9574 27.2093 70.7426C26.8489 70.5278 26.536 70.2377 26.2906 69.891C26.0452 69.5443 25.8728 69.1485 25.7844 68.7291L24.4047 62.2287C24.2824 61.6522 24.0023 61.124 23.5977 60.7068C23.1931 60.2895 22.6808 60.0007 22.1218 59.8747L15.8155 58.452C15.4091 58.3602 15.0257 58.182 14.6899 57.9288C14.3541 57.6755 14.0732 57.3529 13.8652 56.9814C13.6572 56.6099 13.5266 56.1977 13.4818 55.7712C13.4371 55.3447 13.4791 54.9133 13.6052 54.5045L15.5636 48.1632C15.7375 47.6011 15.7512 46.9993 15.6032 46.4294C15.4551 45.8594 15.1515 45.3453 14.7285 44.9481L9.963 40.4647C9.65518 40.1757 9.40928 39.8236 9.24101 39.4309C9.07275 39.0383 8.98584 38.6137 8.98584 38.1844C8.98584 37.7551 9.07275 37.3306 9.24101 36.9379C9.40928 36.5453 9.65518 36.1932 9.963 35.9041L14.7285 31.4231C15.1513 31.0257 15.4547 30.5116 15.6028 29.9417C15.7508 29.3718 15.7372 28.7701 15.5636 28.208L13.6052 21.8667C13.4791 21.4578 13.437 21.0262 13.4818 20.5996C13.5265 20.1729 13.6571 19.7606 13.8651 19.3889C14.0731 19.0172 14.3539 18.6943 14.6898 18.4409C15.0256 18.1874 15.409 18.0089 15.8155 17.9169L22.1218 16.4965C22.6808 16.3705 23.1931 16.0817 23.5977 15.6644C24.0023 15.2472 24.2824 14.719 24.4047 14.1425L25.7844 7.63978C25.8731 7.22055 26.0457 6.82504 26.2912 6.47857C26.5367 6.1321 26.8496 5.84232 27.21 5.62777C27.5704 5.41322 27.9703 5.27864 28.384 5.23265C28.7977 5.18665 29.2162 5.23025 29.6127 5.36066L35.7624 7.38005C36.3076 7.55876 36.891 7.57264 37.4436 7.42003C37.9962 7.26741 38.4948 6.95471 38.8804 6.51894L43.2283 1.60503C43.5088 1.28833 43.8502 1.03537 44.2307 0.862307C44.6113 0.689238 45.0227 0.599854 45.4386 0.599854C45.8545 0.599854 46.2659 0.689238 46.6464 0.862307C47.027 1.03537 47.3684 1.28833 47.6489 1.60503L51.9968 6.51894C52.3824 6.95471 52.881 7.26741 53.4336 7.42003C53.9862 7.57264 54.5696 7.55876 55.1148 7.38005L61.2645 5.36066C61.661 5.23025 62.0795 5.18665 62.4932 5.23265C62.9069 5.27864 63.3068 5.41322 63.6672 5.62777C64.0275 5.84232 64.3405 6.1321 64.586 6.47857C64.8315 6.82504 65.0041 7.22055 65.0928 7.63978L66.4725 14.1425C66.5948 14.719 66.8748 15.2472 67.2795 15.6644C67.6841 16.0817 68.1964 16.3705 68.7554 16.4965Z"
              fill="#6D28D9"/>
        <path id="Vector_8"
              d="M69.0623 38.1949C69.0574 42.7087 67.8363 47.1323 65.5353 50.9721C63.2342 54.812 59.9438 57.917 56.0311 59.9409C52.1183 61.9647 47.7372 62.8277 43.3765 62.4336C39.0158 62.0395 34.847 60.4038 31.3354 57.7089C27.8237 55.0141 25.1073 51.3661 23.4892 47.1721C21.871 42.978 21.4149 38.4029 22.1715 33.957C22.9282 29.5112 24.868 25.3696 27.7744 21.9944C30.6808 18.6191 34.4395 16.143 38.6313 14.8422C40.8386 14.1535 43.1329 13.8066 45.4391 13.8126C48.5431 13.8129 51.6167 14.4439 54.4842 15.6697C57.3516 16.8954 59.9567 18.6918 62.1505 20.9561C64.3444 23.2205 66.084 25.9084 67.27 28.8663C68.4559 31.8243 69.0649 34.9942 69.0623 38.1949Z"
              fill="#A78BFA"/>
        <path id="Vector_9"
              d="M69.0621 38.1949C69.0644 42.3209 68.0492 46.3798 66.112 49.9901C64.1748 53.6003 61.3793 56.6434 57.988 58.8334C55.7807 59.522 53.4864 59.869 51.1802 59.8629C46.0492 59.866 41.0567 58.1469 36.9571 54.9653C32.8574 51.7838 29.8735 47.3127 28.4561 42.2278C27.0387 37.1429 27.265 31.7204 29.1006 26.7798C30.9363 21.8391 34.2816 17.6489 38.6311 14.8422C40.8385 14.1535 43.1328 13.8066 45.4389 13.8126C48.543 13.8129 51.6166 14.4439 54.484 15.6697C57.3515 16.8954 59.9566 18.6918 62.1504 20.9561C64.3443 23.2205 66.0839 25.9084 67.2698 28.8663C68.4558 31.8243 69.0648 34.9942 69.0621 38.1949Z"
              fill="#8B5CF6"/>
        <path id="Vector_10"
              d="M47.1587 53.2245C46.7074 53.2245 46.2745 53.0396 45.9553 52.7105C45.6361 52.3814 45.4568 51.935 45.4568 51.4695V29.7079L41.068 32.799C40.8836 32.9342 40.6748 33.0301 40.454 33.0812C40.2332 33.1322 40.0047 33.1373 39.782 33.0962C39.5592 33.0551 39.3467 32.9686 39.1567 32.8417C38.9668 32.7149 38.8033 32.5503 38.6758 32.3575C38.5483 32.1647 38.4593 31.9477 38.4141 31.719C38.369 31.4904 38.3685 31.2547 38.4127 31.0259C38.4569 30.797 38.5449 30.5796 38.6716 30.3862C38.7983 30.1929 38.9611 30.0275 39.1505 29.8998L46.1988 24.9344C46.4547 24.7543 46.7533 24.6495 47.0626 24.6315C47.372 24.6134 47.6802 24.6828 47.9541 24.8321C48.228 24.9813 48.4572 25.2049 48.6169 25.4786C48.7767 25.7523 48.861 26.0657 48.8607 26.3852V51.4695C48.8607 51.935 48.6814 52.3814 48.3622 52.7105C48.043 53.0396 47.6101 53.2245 47.1587 53.2245Z"
              fill="#F5F3FF"/>
    </g>
</svg>
